# Blender 4.0.2
# www.blender.org
mtllib untitled.mtl
o Cube
v 0.000000 1.000000 -5.000000
v 0.000000 -1.000000 -3.000000
v 2.000000 1.000000 6.049132
v 1.000000 -1.000000 5.000000
v -2.000000 1.000000 6.049132
v -1.000000 -1.000000 5.000000
v -1.000000 -1.000000 0.000000
v 2.000000 1.000000 0.000000
v -2.000000 1.000000 0.000000
v 1.000000 -1.000000 0.000000
v -1.000000 -1.000000 2.500000
v 2.000000 1.000000 2.500000
v -2.000000 1.000000 -2.500000
v 1.000000 -1.000000 -1.626607
v -1.000000 -1.000000 -1.626607
v 2.000000 1.000000 -2.500000
v -2.000000 1.000000 2.500000
v 1.000000 -1.000000 2.500000
v -1.000000 1.000000 4.000000
v -1.000000 3.000000 4.000000
v -1.000000 1.000000 2.000000
v -1.000000 3.000000 1.683128
v 1.000000 1.000000 4.000000
v 1.000000 3.000000 4.000000
v 1.000000 1.000000 2.000000
v 1.000000 3.000000 1.683128
vn -0.0000 1.0000 -0.0000
vn -0.0000 -0.4645 0.8856
vn -0.6967 -0.5073 -0.5073
vn -0.0000 -1.0000 -0.0000
vn 0.8944 -0.4472 -0.0000
vn -0.8944 -0.4472 -0.0000
vn 0.6967 -0.5073 -0.5073
vn -1.0000 -0.0000 -0.0000
vn -0.0000 -0.1565 -0.9877
vn 1.0000 -0.0000 -0.0000
vn -0.0000 -0.0000 1.0000
vn -0.6508 -0.5527 -0.5206
vn 0.6508 -0.5527 -0.5206
vt 0.875000 0.687500
vt 0.625000 0.750000
vt 0.625000 0.687500
vt 0.375000 1.000000
vt 0.375000 0.750000
vt 0.375000 0.187500
vt 0.625000 0.250000
vt 0.375000 0.250000
vt 0.375000 0.687500
vt 0.125000 0.750000
vt 0.125000 0.687500
vt 0.375000 0.562500
vt 0.625000 0.625000
vt 0.375000 0.625000
vt 0.125000 0.625000
vt 0.125000 0.562500
vt 0.625000 0.062500
vt 0.375000 0.125000
vt 0.375000 0.062500
vt 0.875000 0.562500
vt 0.625000 0.562500
vt 0.875000 0.500000
vt 0.375000 0.000000
vt 0.375000 0.500000
vt 0.625000 0.500000
vt 0.625000 0.125000
vt 0.875000 0.625000
vt 0.625000 0.000000
vt 0.125000 0.500000
vt 0.875000 0.750000
vt 0.625000 1.000000
vt 0.625000 0.187500
s 0
usemtl Material
f 17/1/1 3/2/1 12/3/1
f 3/2/2 6/4/2 4/5/2
f 15/6/3 1/7/3 2/8/3
f 18/9/4 6/10/4 11/11/4
f 12/3/5 4/5/5 18/9/5
f 14/12/5 8/13/5 10/14/5
f 14/12/4 7/15/4 15/16/4
f 17/17/6 7/18/6 11/19/6
f 13/20/1 8/13/1 16/21/1
f 1/22/1 13/20/1 16/21/1
f 6/23/6 17/17/6 11/19/6
f 2/24/4 14/12/4 15/16/4
f 1/25/7 14/12/7 2/24/7
f 8/13/5 18/9/5 10/14/5
f 10/14/4 11/11/4 7/15/4
f 9/26/6 15/6/6 7/18/6
f 9/27/1 12/3/1 8/13/1
f 20/28/8 21/8/8 19/23/8
f 22/7/9 25/24/9 21/8/9
f 25/24/10 24/2/10 23/5/10
f 24/2/11 19/4/11 23/5/11
f 25/24/4 19/10/4 21/29/4
f 22/22/1 24/2/1 26/25/1
f 17/1/1 5/30/1 3/2/1
f 3/2/2 5/31/2 6/4/2
f 15/6/12 13/32/12 1/7/12
f 18/9/4 4/5/4 6/10/4
f 12/3/5 3/2/5 4/5/5
f 14/12/5 16/21/5 8/13/5
f 14/12/4 10/14/4 7/15/4
f 17/17/6 9/26/6 7/18/6
f 13/20/1 9/27/1 8/13/1
f 6/23/6 5/28/6 17/17/6
f 1/25/13 16/21/13 14/12/13
f 8/13/5 12/3/5 18/9/5
f 10/14/4 18/9/4 11/11/4
f 9/26/6 13/32/6 15/6/6
f 9/27/1 17/1/1 12/3/1
f 20/28/8 22/7/8 21/8/8
f 22/7/9 26/25/9 25/24/9
f 25/24/10 26/25/10 24/2/10
f 24/2/11 20/31/11 19/4/11
f 25/24/4 23/5/4 19/10/4
f 22/22/1 20/30/1 24/2/1
